<svg xmlns:xlink="http://www.w3.org/1999/xlink" xmlns="http://www.w3.org/2000/svg" viewBox="0 0 79.13 58.86" fill="#fff" width="79.13"  height="58.86" ><path d="M71.82 7.02l-2.49-4.76A79.69 79.69 0 0 0 61.2.55a45.72 45.72 0 0 0-6.86-.53 24.14 24.14 0 0 0-9.62 1.56 10.39 10.39 0 0 0-5.23 5.08 11.17 11.17 0 0 0-5.25-5.11A22.63 22.63 0 0 0 25.02.02a50.16 50.16 0 0 0-7.27.57A74.94 74.94 0 0 0 9.52 2.3L6.86 7.46 0 7.84v51l32.52-2.4a25.35 25.35 0 0 0 4 1.46 13.6 13.6 0 0 0 3.49.49 11.6 11.6 0 0 0 3.28-.49 17.57 17.57 0 0 0 3.47-1.46l32.37 2.4V7.45zm-2.78-1.35l3.62 6.83v37.74l-3.62-6.83zm2.52 46.35l-27-2.17a6.43 6.43 0 0 1-4.17 2.17q0-8.63 13-8.64a56.32 56.32 0 0 1 6.68.44q3.66.44 7.93 1.36zm-31.17-39.9q0-5.32 2.8-7.52 3.51-2.79 10.33-2.79a49.67 49.67 0 0 1 6.24.44q3.43.44 7.49 1.32v39.66a56.33 56.33 0 0 0-6.79-1.21 59.71 59.71 0 0 0-6.74-.39 24.72 24.72 0 0 0-7.93 1 13.88 13.88 0 0 0-5.4 3.72zM11.77 3.64a64.6 64.6 0 0 1 7.18-1.37 51.91 51.91 0 0 1 6.8-.46q6.46 0 9.67 2.55t3.22 7.66V46.2q-4.17-4.56-13.65-4.56a51.79 51.79 0 0 0-5.6.38q-3.3.36-7.58 1.14zm7 40.23a55 55 0 0 1 6.62-.42q6.59 0 9.67 2t3.59 6.63a6.68 6.68 0 0 1-3.94-2.13L7.75 52.08l3.52-6.94q4-.84 7.5-1.27zM6.39 12.12l3.62-6.58v37.87l-3.62 7zm70.88 44.81l-31.11-2.31a15.44 15.44 0 0 1-3.21 1.49 9.85 9.85 0 0 1-3 .49 11.64 11.64 0 0 1-3.28-.49 18.48 18.48 0 0 1-3.54-1.49L1.81 56.93V9.37l4.06-.22-1.34 2.61v42.16l29.61-1.84a8 8 0 0 0 5.38 1.81 8.13 8.13 0 0 0 5.45-1.81l29.5 1.84V11.75l-1.81-3 4.6.26z" fill="#025C13"></path><path d="M53.73 41.64a59.7 59.7 0 0 1 6.74.39 56.33 56.33 0 0 1 6.77 1.2V3.57q-4.06-.88-7.49-1.32a49.54 49.54 0 0 0-6.24-.44q-6.82 0-10.33 2.79-2.79 2.2-2.79 7.52v34.23a13.89 13.89 0 0 1 5.43-3.7 24.75 24.75 0 0 1 7.93-1zm-3.4-19q-2.72-1.18-2.72-3 0-1.64 2-4.16t3.6-2.67a4 4 0 0 1 2.43 1.21 5 5 0 0 1 1.67 2.19 12.11 12.11 0 0 0-2.14-.23 11.7 11.7 0 0 0-2.64.34c-1.3.33-2 .76-2 1.3q0 1.49 2.6 1.49a8.7 8.7 0 0 0 3.17-1 7.42 7.42 0 0 1 3.18-.84q-.39 1.14-1.35 3.39a18.07 18.07 0 0 0-5.32 2.36q-3 2.1-3 4.65 0 3 6.12 3.78a77.41 77.41 0 0 0 8.23.27q-2.7 3.3-9.24 3.3a11.3 11.3 0 0 1-5-.88 4.23 4.23 0 0 1-2.32-4.12 11.13 11.13 0 0 1 .79-3.89 12.92 12.92 0 0 1 2-3.45zM24.39 35.02q6.55 0 9.27-3.28a77.44 77.44 0 0 1-8.27-.25q-6.12-.8-6.12-3.78 0-2.55 3-4.65a18 18 0 0 1 5.32-2.44 33.44 33.44 0 0 0 1.35-3.39 7.43 7.43 0 0 0-3.18.84 8.7 8.7 0 0 1-3.18.91q-2.6 0-2.6-1.49c0-.54.65-1 2-1.3a11.74 11.74 0 0 1 2.64-.34 12.18 12.18 0 0 1 2.14.23 5 5 0 0 0-1.67-2.19 4 4 0 0 0-2.43-1.16q-1.57 0-3.6 2.67t-2 4.16q0 1.87 2.72 3v.08a12.93 12.93 0 0 0-1.91 3.47 11.13 11.13 0 0 0-.84 3.91 4.23 4.23 0 0 0 2.36 4.14 11.28 11.28 0 0 0 5 .86" fill="#025C13"></path></svg>