<svg xmlns:xlink="http://www.w3.org/1999/xlink" xmlns="http://www.w3.org/2000/svg" width="402" height="402" viewBox="0 0 402 402" fill="#636363"><path d="M377.9 24.1C361.8 8 342.4 0 319.8 0H82.2c-22.6 0-42 8-58.1 24.1S0 59.6 0 82.2v237.5c0 22.6 8 42 24.1 58.1s35.5 24.1 58.1 24.1h237.5c22.6 0 42-8 58.1-24.1s24.1-35.5 24.1-58.1V82.2c.1-22.6-7.9-42-24-58.1zm-12.5 295.7c0 12.6-4.5 23.3-13.4 32.3-8.9 8.9-19.7 13.4-32.3 13.4H82.2c-12.6 0-23.3-4.5-32.3-13.4-8.9-8.9-13.4-19.7-13.4-32.3V82.2c0-12.6 4.5-23.3 13.4-32.3 8.9-8.9 19.7-13.4 32.3-13.4h237.5c12.6 0 23.3 4.5 32.3 13.4 8.9 8.9 13.4 19.7 13.4 32.3v237.6z"/></svg>