<svg xmlns:xlink="http://www.w3.org/1999/xlink" xmlns="http://www.w3.org/2000/svg" class="button__icon" width="247.5"  height="247.5" ><defs><symbol viewBox="0 0 247.5 247.5" id="filter" xmlns="http://www.w3.org/2000/svg"><path d="M246.7 14c-1.2-2.6-3.9-4.3-6.8-4.3H7.5C4.6 9.7 2 11.4.7 14c-1.2 2.6-.8 5.7 1 8l89.4 108.4v99.9c0 2.6 1.3 5 3.5 6.4 1.2.7 2.6 1.1 4 1.1 1.1 0 2.3-.3 3.3-.8l50.2-24.9c2.6-1.3 4.2-3.9 4.2-6.7l.1-75.1 89.4-108.4c1.8-2.2 2.2-5.3.9-7.9zM143.1 122.9c-1.1 1.3-1.7 3-1.7 4.8l-.1 73.1-35.2 17.5v-90.5c0-1.7-.6-3.4-1.7-4.8l-81-98.3h200.7l-81 98.2z"></path></symbol></defs>
<use xlink:href="#filter" fill="#42526E">
</use></svg>