<svg xmlns:xlink="http://www.w3.org/1999/xlink" xmlns="http://www.w3.org/2000/svg" fill="#636363" viewBox="0 0 328.9 328.9" width="328.9"  height="328.9" ><path d="M310.2 18.7C297.7 6.2 282.7 0 265 0H64C46.3 0 31.2 6.2 18.7 18.7S0 46.3 0 64v201c0 17.5 6.2 32.6 18.7 45.1 12.5 12.6 27.6 18.8 45.3 18.8h201c17.7 0 32.8-6.3 45.2-18.8 12.5-12.6 18.7-27.6 18.7-45.1V64c0-17.7-6.2-32.8-18.7-45.3zM292.4 265c0 7.6-2.7 14.1-8 19.4-5.3 5.3-11.8 8-19.4 8H64c-7.6 0-14.1-2.7-19.4-8-5.3-5.3-8-11.8-8-19.4V64c0-7.6 2.7-14.1 8-19.4 5.3-5.3 11.8-8 19.4-8h201c7.6 0 14.1 2.7 19.4 8 5.3 5.3 8 11.8 8 19.4v201z"/><path d="M246.7 146.2H82.2c-2.7 0-4.9.9-6.6 2.6-1.7 1.7-2.6 3.9-2.6 6.6v18.3c0 2.7.9 4.9 2.6 6.6 1.7 1.7 3.9 2.6 6.6 2.6h164.5c2.7 0 4.9-.9 6.6-2.6 1.7-1.7 2.6-3.9 2.6-6.6v-18.3c0-2.7-.9-4.9-2.6-6.6-1.8-1.8-4-2.6-6.6-2.6z"/></svg>